<svg width="24" height="24" viewBox="0 0 24 24" fill="none" xmlns="http://www.w3.org/2000/svg">
<path d="M4.43975 3.0551H4.20975C4.19975 3.0551 4.19375 3.0451 4.18875 3.0391L4.17775 3.0221C4.30375 2.9841 4.39575 2.9951 4.43975 3.0551Z" fill="#AE918B"/>
<path d="M4.17775 3.02209L4.18775 3.03909L4.20975 3.04909H4.43975C4.48375 3.04909 4.52775 3.04909 4.56575 3.07209C4.61575 3.12009 4.67042 3.13809 4.72975 3.12609C4.86975 3.19409 5.00475 3.27076 5.13475 3.35609C5.46775 3.61809 5.76275 3.87009 6.00875 4.12109L6.67575 4.79909C6.82975 4.95809 6.99375 5.11109 7.17375 5.27509C7.44675 5.51509 7.74275 5.72409 8.05975 5.88809C8.28975 6.01009 8.53675 6.09809 8.79175 6.15009C8.88574 6.16736 8.98172 6.17106 9.07675 6.16109C9.09018 6.16007 9.10357 6.16359 9.11475 6.17109C9.12499 6.18111 9.13846 6.18714 9.15275 6.18809C9.26275 6.20543 9.36675 6.20543 9.46475 6.18809C9.55875 6.17276 9.64975 6.16543 9.73775 6.16609C9.92375 6.17209 10.1048 6.12309 10.2848 6.11209C10.4548 6.09609 10.6351 6.07243 10.8258 6.04109L10.8808 6.01309H10.9028C10.9034 6.02443 10.9124 6.03009 10.9298 6.03009C11.0448 6.03009 11.1598 6.04009 11.2798 6.01309C11.3695 5.99202 11.4622 5.9866 11.5538 5.99709C11.7111 6.02376 11.8441 6.02543 11.9528 6.00209L12.3628 6.03509C12.4829 6.07425 12.6115 6.08012 12.7348 6.05209C12.8598 6.06809 12.9918 6.07909 13.1168 6.08409L13.5108 6.11709C13.7548 6.14643 13.9991 6.16843 14.2438 6.18309C14.3198 6.19909 14.3698 6.21609 14.4518 6.18809C14.8718 6.05809 15.2168 5.90409 15.4958 5.71809L16.2888 5.19809C16.6341 4.96809 16.9768 4.81709 17.3168 4.74509C17.5298 4.70109 17.7968 4.70109 17.9998 4.81009C18.2518 4.97409 18.4098 5.19909 18.4808 5.50009L18.5198 5.71809C18.5468 5.88209 18.5198 6.04109 18.5298 6.20509C18.5358 6.28109 18.5298 6.36909 18.5198 6.44509C18.4978 6.55509 18.4918 6.66909 18.4918 6.78509C18.4918 6.95909 18.4488 7.13509 18.4598 7.30909L18.4868 7.77909C18.4914 7.91709 18.5094 8.06309 18.5408 8.21709L18.6338 8.74209C18.6398 8.79609 18.6728 8.83509 18.6778 8.88409C18.7224 9.04143 18.7698 9.19809 18.8198 9.35409C18.8644 9.48543 18.9228 9.61676 18.9948 9.74809L19.1428 10.0431C19.3748 10.5151 19.5528 11.0131 19.6728 11.5251C19.6838 11.6231 19.7278 11.6891 19.7438 11.7981C19.7608 11.9021 19.7938 11.9951 19.7988 12.0991C19.7988 12.2411 19.8538 12.3611 19.8648 12.4991C19.8854 12.7171 19.8981 12.9244 19.9028 13.1211C19.9028 13.1544 19.9194 13.1874 19.9528 13.2201L19.9468 13.5261C19.9036 13.7421 19.8814 13.9618 19.8808 14.1821C19.8853 14.228 19.882 14.2743 19.8708 14.3191C19.823 14.4333 19.7969 14.5554 19.7938 14.6791C19.7943 14.7289 19.7885 14.7787 19.7768 14.8271C19.7668 14.8821 19.7548 14.9311 19.7548 14.9801C19.7088 15.2521 19.6541 15.5221 19.5908 15.7901C19.2984 16.8768 18.7446 17.8755 17.9778 18.6991C17.8138 18.8631 17.6498 19.0381 17.4748 19.1911C16.7756 19.8106 15.9722 20.3012 15.1018 20.6401C14.8855 20.7247 14.6624 20.7902 14.4348 20.8361C14.1494 20.8861 13.8634 20.9338 13.5768 20.9791L13.4128 21.0001L11.9198 20.9951L11.7558 20.9841C11.5949 20.9323 11.4268 20.9063 11.2578 20.9071C11.2154 20.9054 11.1734 20.8984 11.1328 20.8861C11.0913 20.8761 11.0492 20.8687 11.0068 20.8641L10.8208 20.8311C10.7561 20.8169 10.6895 20.8135 10.6238 20.8211C9.83389 20.6826 9.08055 20.3845 8.40975 19.9451C7.75507 19.551 7.16932 19.0524 6.67575 18.4691C6.10864 17.7757 5.64824 17.0015 5.30975 16.1721C5.01207 15.4736 4.76151 14.756 4.55975 14.0241C4.46267 13.6704 4.38059 13.3127 4.31375 12.9521L4.14975 12.0331C4.04099 11.4057 3.91158 10.782 3.76175 10.1631L3.43375 8.90609C3.2959 8.36523 3.18476 7.8179 3.10075 7.26609C3.06009 7.03609 3.03075 6.80443 3.01275 6.57109C2.95266 5.57697 3.1054 4.58148 3.46075 3.65109C3.58075 3.35109 3.84375 3.07709 4.17175 3.05009L4.18275 3.03309L4.17775 3.02209Z" fill="#42281F"/>
<path d="M4.73976 3.1321C4.86076 3.1701 4.95976 3.2251 5.05176 3.2851C5.36376 3.4871 5.65376 3.7391 5.94376 4.0341C5.99276 4.0841 6.05276 4.1221 6.09676 4.1711C6.36976 4.4611 6.71976 4.8161 6.92676 5.0181C7.24343 5.31877 7.58443 5.58144 7.94976 5.8061C8.16443 5.92477 8.39043 6.01577 8.62776 6.0791C8.97376 6.1611 9.32976 6.1851 9.68376 6.1501C10.0231 6.1161 10.2798 6.0851 10.4538 6.0571C10.5952 6.0348 10.7377 6.02012 10.8808 6.0131L10.8258 6.0411C10.6451 6.07277 10.4628 6.09447 10.2798 6.1061C10.1048 6.1231 9.92376 6.1721 9.73776 6.1661C9.64976 6.16544 9.55876 6.17277 9.46476 6.1881C9.3614 6.20443 9.25612 6.20443 9.15276 6.1881C9.14087 6.18485 9.12968 6.17943 9.11976 6.1721C9.10736 6.16308 9.09197 6.15914 9.07676 6.1611C8.98177 6.1714 8.8858 6.16804 8.79176 6.1511C8.53635 6.09923 8.28979 6.01064 8.05976 5.8881C7.74144 5.71918 7.44406 5.51344 7.17376 5.2751C7.00307 5.12386 6.83892 4.96538 6.68176 4.8001L6.00876 4.1271C5.73514 3.85186 5.44277 3.59592 5.13376 3.3611C5.00878 3.27459 4.8774 3.1977 4.74076 3.1311" fill="#826158"/>
<path d="M7.34375 5.8271C7.61775 6.60843 7.71442 7.37043 7.63375 8.1131C7.62275 8.2001 7.64975 8.2111 7.71575 8.1561C8.31808 7.60282 8.99541 7.13723 9.72775 6.7731C9.92508 6.67976 10.1128 6.57043 10.2908 6.4451C10.764 6.35094 11.2466 6.31234 11.7288 6.3301C11.7618 6.5601 11.6298 6.6861 11.4228 6.7301C10.8208 6.8601 10.2578 7.0521 9.76575 7.3701C9.37967 7.6291 9.01425 7.91763 8.67275 8.2331C8.58475 8.3151 8.57975 8.4131 8.65575 8.5171C8.69375 8.5721 8.73775 8.5941 8.80375 8.5771L9.14275 8.5231C9.17608 8.5111 9.19075 8.53443 9.18675 8.5931L9.17975 8.5791L9.16975 8.5621C9.16425 8.55718 9.15713 8.55446 9.14975 8.55446C9.14237 8.55446 9.13525 8.55718 9.12975 8.5621L9.11975 8.5731L9.05375 8.7211L9.04375 8.6991C9.04375 8.69243 9.03808 8.68876 9.02675 8.6881H9.01575C8.79675 8.7861 8.09675 9.1801 8.25075 9.4751C8.31587 9.61973 8.42462 9.74037 8.56175 9.8201L8.57875 9.8301C8.58134 9.8348 8.58296 9.83998 8.58351 9.84533C8.58405 9.85067 8.58352 9.85607 8.58193 9.86121C8.58034 9.86634 8.57774 9.8711 8.57427 9.8752C8.5708 9.87931 8.56655 9.88267 8.56175 9.8851C8.39569 9.99627 8.24821 10.133 8.12475 10.2901C7.98134 10.4384 7.84961 10.5975 7.73075 10.7661C7.48608 11.1101 7.28208 11.4271 7.11875 11.7171C6.95475 12.0011 6.91075 12.3571 7.17275 12.5971C7.28608 12.7071 7.40842 12.7344 7.53975 12.6791C7.54475 12.6791 7.54975 12.6791 7.54975 12.6901L7.54475 12.7011L7.52875 12.7181C7.09195 12.9709 6.72252 13.3252 6.45175 13.7511C6.28775 14.0081 6.05175 14.4401 6.42975 14.6311C6.48375 14.6591 6.52775 14.6421 6.57675 14.6211C6.65375 14.5771 6.66475 14.5881 6.61575 14.6641C6.56075 14.7461 6.50575 14.8391 6.46775 14.9381C6.37475 15.1781 6.27075 15.4131 6.16775 15.6481C6.1187 15.7323 6.06355 15.8129 6.00275 15.8891C5.91931 15.9954 5.81302 16.0815 5.69175 16.1411L5.42375 15.5011C5.58775 15.2211 5.68575 15.0311 5.74075 14.7511C5.74075 14.7241 5.73475 14.7081 5.70775 14.6971C5.60975 14.6751 5.52175 14.6421 5.52775 14.5171C5.55442 13.9384 5.70908 13.4061 5.99175 12.9201L6.17175 12.6031C6.18638 12.5514 6.19046 12.4974 6.18375 12.4441C6.18375 12.4281 6.18375 12.4111 6.19375 12.3951C6.55375 11.6431 6.77975 10.8351 6.86175 10.0051C6.86174 9.99945 6.86014 9.99392 6.85714 9.98915C6.85413 9.98437 6.84984 9.98054 6.84475 9.9781H6.82975C6.82554 9.97887 6.82168 9.98097 6.81875 9.9841C6.65475 10.2571 6.49075 10.5311 6.33775 10.8041C6.18975 11.0771 5.99775 11.2801 5.69775 11.2801C5.44075 11.2801 5.20575 11.1431 5.00875 10.9841C4.99757 10.9766 4.98418 10.9731 4.97075 10.9741C4.96729 10.9742 4.96391 10.9751 4.96093 10.9769C4.95795 10.9786 4.95548 10.9811 4.95375 10.9841L4.95175 10.9921L4.95375 11.0011C5.11775 11.2471 5.04675 11.5421 4.77875 11.6461C4.66397 11.6832 4.53967 11.6775 4.42875 11.6301L4.25475 10.7501C4.30875 10.7821 4.33075 10.7871 4.33675 10.7501C4.37142 10.5641 4.37675 10.3778 4.35275 10.1911C4.35647 10.1796 4.36387 10.1696 4.37381 10.1628C4.38376 10.1559 4.39568 10.1525 4.40775 10.1531C4.57175 10.1751 4.73575 10.1971 4.89975 10.2631C5.16775 10.3771 5.55575 10.4481 5.81275 10.2631C6.14075 10.0161 6.06975 9.6061 5.91675 9.2461C5.91031 9.23434 5.90838 9.22064 5.91133 9.20757C5.91427 9.1945 5.92189 9.18295 5.93275 9.1751L6.23275 9.1471C6.40875 9.1371 6.46875 8.9831 6.39775 8.8411C6.31682 8.70224 6.21945 8.57365 6.10775 8.4581C6.10373 8.45369 6.10074 8.44844 6.09901 8.44273C6.09728 8.43702 6.09685 8.43099 6.09775 8.4251L6.10275 8.4091L6.11275 8.3991C6.2682 8.30336 6.40295 8.17753 6.50907 8.02898C6.6152 7.88044 6.69057 7.71218 6.73075 7.5341C6.80875 7.1941 6.75775 6.8841 6.57775 6.6041L6.55675 6.5501C6.55377 6.44105 6.52535 6.33421 6.47375 6.2381C6.30975 5.9211 6.12375 5.5821 5.89975 5.2211C5.56331 4.66997 5.16139 4.16161 4.70275 3.7071C4.57675 3.5811 4.37475 3.4831 4.10675 3.4061C4.30875 3.3681 4.46742 3.37343 4.58275 3.4221C4.81742 3.52543 5.03608 3.6641 5.23875 3.8381C5.73575 4.2541 6.20075 4.7841 6.63275 5.2051C6.85175 5.4181 7.09275 5.6251 7.34275 5.8281" fill="#774C46"/>
<path d="M4.10676 3.40511C4.37876 3.48111 4.57742 3.58144 4.70276 3.70611C5.13876 4.13144 5.53976 4.63644 5.90576 5.22111C5.90442 5.25244 5.91709 5.28144 5.94376 5.30811C5.94776 5.31249 5.95038 5.31797 5.95127 5.32385C5.95216 5.32972 5.95128 5.33573 5.94876 5.34111V5.36311L5.93876 5.37311H5.92176C5.82876 5.27511 5.73576 5.18811 5.66476 5.07311L5.28176 4.52611C5.09076 4.25811 4.78976 3.89211 4.43976 4.02911C4.16076 4.13811 4.03576 4.43311 3.96976 4.71811C3.80959 5.42984 3.71255 6.15431 3.67976 6.88311C3.65671 7.25441 3.65671 7.6268 3.67976 7.99811C3.67416 8.00868 3.66671 8.01816 3.65776 8.02611C3.65776 8.02611 3.64176 8.02611 3.61976 8.00411C3.57777 7.89777 3.54499 7.78804 3.52176 7.67611C3.41382 7.1541 3.35523 6.62309 3.34676 6.09011C3.35864 5.40924 3.46705 4.73351 3.66876 4.08311C3.77276 3.73911 3.91476 3.51511 4.10676 3.40511Z" fill="#E6D1CC"/>
<path d="M5.89975 5.22011C6.11875 5.58111 6.31575 5.92011 6.47375 6.23811C6.52631 6.33343 6.55448 6.44026 6.55575 6.54911C6.55075 6.57111 6.53975 6.57711 6.52375 6.57711C6.51275 6.57711 6.50675 6.56611 6.49575 6.54911C6.2934 6.19733 5.99604 5.90968 5.63775 5.71911C5.52775 5.66311 5.42975 5.66311 5.35275 5.74011C5.29574 5.80008 5.25451 5.87327 5.23275 5.95311C5.05317 6.51561 4.88745 7.08245 4.73575 7.65311C4.59308 8.18511 4.47808 8.76844 4.39075 9.40311C4.26935 9.26269 4.16465 9.10866 4.07875 8.94411L3.65275 8.12411L3.61975 8.00411L3.65775 8.02611C3.66886 8.01873 3.67838 8.00921 3.68575 7.99811C3.63883 6.89711 3.73429 5.79466 3.96975 4.71811C4.03575 4.43311 4.16075 4.13811 4.43975 4.02811C4.78475 3.89211 5.09075 4.25811 5.28175 4.52111L5.66475 5.06811C5.73575 5.18811 5.82875 5.27511 5.92175 5.37411C5.92427 5.37521 5.927 5.37578 5.92975 5.37578C5.9325 5.37578 5.93523 5.37521 5.93775 5.37411L5.94375 5.36311L5.94875 5.34111C5.95128 5.33573 5.95215 5.32972 5.95126 5.32385C5.95037 5.31797 5.94776 5.31249 5.94375 5.30811C5.91981 5.28482 5.90432 5.2542 5.89975 5.22111" fill="#C98C89"/>
<path d="M17.9998 4.8101C18.1478 4.88677 18.2628 4.99077 18.3448 5.1221C18.4634 5.32877 18.5364 5.55477 18.5638 5.8001C18.5738 6.0031 18.5738 6.2001 18.5528 6.4021L18.5028 7.0251C18.466 7.80077 18.5776 8.57632 18.8318 9.3101C18.9051 9.5081 18.9924 9.69977 19.0938 9.8851C19.5138 10.6971 19.7798 11.5791 19.8808 12.4871C19.8808 12.4981 19.8918 12.5091 19.9028 12.5201C19.9348 12.7521 19.9531 12.9854 19.9578 13.2201C19.9204 13.1868 19.9021 13.1541 19.9028 13.1221C19.8981 12.9157 19.8854 12.7095 19.8648 12.5041C19.8548 12.3621 19.8048 12.2411 19.7988 12.1041C19.7938 11.9951 19.7608 11.9021 19.7448 11.7931C19.7278 11.6941 19.6848 11.6291 19.6738 11.5251L19.6458 11.4151L19.5528 11.0881C19.414 10.6233 19.2273 10.1743 18.9958 9.7481C18.9266 9.62184 18.8681 9.49006 18.8208 9.3541C18.7708 9.19877 18.7231 9.0421 18.6778 8.8841C18.6728 8.8341 18.6398 8.7911 18.6348 8.7421L18.5418 8.2171C18.5127 8.07298 18.4944 7.92692 18.4868 7.7801L18.4598 7.3101C18.4488 7.1341 18.4978 6.9601 18.4928 6.7841C18.4928 6.6701 18.4978 6.5601 18.5198 6.4451C18.5311 6.36244 18.5344 6.28244 18.5298 6.2051C18.5248 6.0411 18.5468 5.8771 18.5198 5.7131L18.4818 5.4941C18.4514 5.35374 18.393 5.22093 18.3102 5.10359C18.2274 4.98624 18.1218 4.88577 17.9998 4.8101Z" fill="#826158"/>
<path d="M18.2947 8.57811L18.2847 8.60011C18.2809 8.60319 18.2763 8.60526 18.2714 8.60613C18.2665 8.60701 18.2615 8.60665 18.2567 8.6051L18.2457 8.60011L18.2397 8.5891C18.0485 8.11454 17.936 7.61192 17.9067 7.1011C17.8847 6.7731 17.9557 6.44511 17.9827 6.11711C17.9944 6.00145 17.9835 5.88463 17.9507 5.7731C17.8247 5.3521 17.4307 5.33511 17.0867 5.44511C16.8301 5.52711 16.5657 5.63077 16.2937 5.75611L16.3647 5.58611C16.6598 5.35256 17.0004 5.18328 17.3647 5.08911C17.4992 5.04368 17.6443 5.04019 17.7807 5.07911C18.0487 5.16011 18.1907 5.48311 18.2187 5.74511C18.2457 5.96511 18.2287 6.28111 18.2017 6.56511C18.1369 7.23711 18.1682 7.91494 18.2947 8.57811Z" fill="#E6D1CC"/>
<path d="M18.2948 8.5781V8.6331L18.1248 8.9771C18.0541 8.85397 17.9923 8.72598 17.9398 8.5941C17.7258 7.97943 17.5104 7.36543 17.2938 6.7521C17.2517 6.61476 17.1871 6.48534 17.1028 6.3691C16.9168 6.1231 16.6758 6.0091 16.3928 6.1291C16.2604 6.18857 16.1466 6.28294 16.0638 6.4021C16.0418 6.3801 16.0258 6.3581 16.0258 6.3361C16.0418 6.2261 16.0858 6.1011 16.1568 5.9761C16.2221 5.8561 16.2678 5.78276 16.2938 5.7561C16.5664 5.6301 16.8308 5.52643 17.0868 5.4451C17.4308 5.3351 17.8248 5.3521 17.9498 5.7731C17.9828 5.8831 17.9938 5.9921 17.9828 6.1121C17.9558 6.4401 17.8848 6.7741 17.9068 7.1021C17.9398 7.6191 18.0578 8.1271 18.2568 8.6051C18.2609 8.60721 18.2656 8.60831 18.2703 8.60831C18.2749 8.60831 18.2796 8.60721 18.2838 8.6051L18.2948 8.5781Z" fill="#C98C89"/>
<path d="M16.3648 5.58611L16.2948 5.75011C16.2668 5.78311 16.2228 5.86011 16.1568 5.96911C16.0938 6.08324 16.0499 6.20686 16.0268 6.33511L15.9168 6.52111C15.8728 6.60311 15.8238 6.80511 15.7748 7.13911C15.7528 7.26511 15.7748 7.37911 15.8398 7.49411C15.8458 7.50011 15.8508 7.51111 15.8458 7.52211C15.8458 7.53144 15.8438 7.54044 15.8398 7.54911L15.8018 7.55911C15.3458 7.19844 14.8628 6.87777 14.3528 6.59711C14.4079 6.5585 14.4719 6.53442 14.5388 6.52711C14.8328 6.63511 15.1058 6.79711 15.3428 7.00211C15.3508 7.00625 15.3601 7.00752 15.369 7.00571C15.3779 7.00389 15.3859 6.99909 15.3918 6.99211L15.3968 6.97511L15.7418 5.99611L16.3648 5.58611Z" fill="#774C46"/>
<path d="M6.55575 6.5501L6.57775 6.6041C6.54975 6.8611 6.53875 7.1401 6.47375 7.3861C6.44045 7.50017 6.40376 7.61322 6.36375 7.7251C6.35351 7.73488 6.3399 7.74034 6.32575 7.74034C6.31159 7.74034 6.29798 7.73488 6.28775 7.7251C6.17935 7.61452 6.09552 7.48231 6.04175 7.3371C6.01475 7.2551 5.98675 7.2601 5.96475 7.3371C5.82382 7.79733 5.79569 8.28472 5.88275 8.7581C5.88044 8.76576 5.87633 8.77276 5.87076 8.7785C5.8652 8.78424 5.85833 8.78856 5.85075 8.7911H5.82875L5.35875 8.6811C5.35491 8.67974 5.35074 8.67959 5.34681 8.68066C5.34288 8.68173 5.33937 8.68398 5.33675 8.6871C5.33305 8.69202 5.33096 8.69795 5.33075 8.7041C5.32719 8.72593 5.32925 8.7483 5.33675 8.7691C5.43675 8.9591 5.47475 9.1751 5.44575 9.3871C5.44279 9.39304 5.43795 9.39784 5.43198 9.40073C5.42601 9.40363 5.41924 9.40446 5.41275 9.4031C5.2464 9.322 5.08234 9.2363 4.92075 9.1461C4.91178 9.14716 4.90316 9.15022 4.89555 9.15507C4.88793 9.15992 4.8815 9.16642 4.87675 9.1741C4.87275 9.41277 4.88941 9.64943 4.92675 9.8841C4.94275 9.9611 4.91575 9.9771 4.85475 9.9281C4.67303 9.77901 4.51637 9.60177 4.39075 9.4031C4.47741 8.76843 4.59208 8.1851 4.73475 7.6531C4.86075 7.1781 5.02475 6.6151 5.23775 5.9531C5.25908 5.87366 5.29653 5.79946 5.34775 5.7351C5.42975 5.6631 5.52175 5.6581 5.63775 5.7181C6.00975 5.9121 6.31775 6.2101 6.52275 6.5771C6.53875 6.5771 6.54975 6.5711 6.55575 6.5491" fill="#BC7573"/>
<path d="M7.34276 5.8271C7.63276 6.0071 7.81876 6.1221 7.91176 6.1721C8.44605 6.45098 9.05293 6.55951 9.65076 6.4831L10.2958 6.4401C10.1158 6.56544 9.92609 6.67477 9.72676 6.7681C8.99411 7.13378 8.31676 7.60106 7.71476 8.1561C7.64876 8.2111 7.62776 8.2001 7.63276 8.1131C7.70827 7.339 7.60917 6.55783 7.34276 5.8271ZM15.7418 5.9971L15.4018 6.9751L15.3918 6.9921L15.3748 7.0021C15.3697 7.0043 15.3643 7.00544 15.3588 7.00544C15.3533 7.00544 15.3478 7.0043 15.3428 7.0021C15.1071 6.79706 14.8365 6.63616 14.5438 6.5271C14.9656 6.40204 15.3698 6.22395 15.7468 5.9971H15.7418Z" fill="#683B36"/>
<path d="M12.3687 6.0341L12.7347 6.0511C12.6115 6.07913 12.4829 6.07325 12.3627 6.0341H12.3687Z" fill="#826158"/>
<path d="M18.1258 8.97711C18.1106 9.04006 18.0804 9.0984 18.0378 9.14711C17.9991 9.18511 17.9681 9.17944 17.9448 9.13011L17.6608 8.49011C17.6547 8.47549 17.6436 8.46358 17.6294 8.45658C17.6152 8.44959 17.599 8.448 17.5838 8.45211C17.5721 8.45578 17.5613 8.46154 17.5518 8.46911C17.5268 8.49358 17.4993 8.51537 17.4698 8.53411C17.4164 8.56144 17.3981 8.54511 17.4148 8.48511L17.5408 8.05811V8.04811C17.5391 8.04082 17.5349 8.0344 17.5288 8.03011L17.5188 8.02611H17.5018C17.2838 8.10811 17.0538 8.06411 16.8238 8.02611C16.7888 8.02031 16.7566 8.00335 16.7321 7.97775C16.7076 7.95215 16.692 7.91929 16.6878 7.88411C16.6611 7.71411 16.6338 7.54444 16.6058 7.37511C16.6035 7.36895 16.5997 7.36346 16.5948 7.35911C16.5897 7.35644 16.5842 7.35488 16.5785 7.35454C16.5728 7.35419 16.5671 7.35507 16.5618 7.35711C16.5567 7.35923 16.5521 7.36237 16.5484 7.36632C16.5446 7.37028 16.5416 7.37497 16.5398 7.38011L16.4418 7.59411L16.4248 7.61011C16.4182 7.61441 16.4106 7.6167 16.4028 7.6167C16.3949 7.6167 16.3873 7.61441 16.3808 7.61011C16.2048 7.22712 16.0975 6.81621 16.0638 6.39611C16.147 6.27893 16.2603 6.18635 16.3918 6.12811C16.6768 6.00811 16.9168 6.12811 17.1028 6.36311C17.1738 6.46211 17.2398 6.58811 17.2938 6.75211L17.9398 8.59411C17.9658 8.67011 18.0278 8.79777 18.1258 8.97711Z" fill="#BC7573"/>
<path d="M11.7287 6.3301C12.7554 6.39677 13.5664 6.46043 14.1617 6.5211C14.2167 6.5271 14.2717 6.5541 14.3527 6.5981C14.8634 6.8781 15.3467 7.19877 15.8027 7.5601C15.8687 7.6321 15.9377 7.6961 16.0097 7.7521C16.0697 7.79543 16.0644 7.8171 15.9937 7.8171L15.9387 7.8281L15.7367 7.8501C15.7236 7.85348 15.7119 7.86124 15.7037 7.8721C15.657 7.92889 15.6288 7.99863 15.6229 8.07192C15.617 8.14522 15.6337 8.21857 15.6707 8.2821L15.6737 8.2931C15.6737 8.2971 15.6727 8.30044 15.6707 8.3031C15.67 8.30567 15.6687 8.30806 15.667 8.31012C15.6652 8.31218 15.6631 8.31387 15.6607 8.3151C15.6487 8.3151 15.6377 8.3151 15.6267 8.3041C15.4967 8.1941 15.4027 7.9761 15.5727 7.8671C15.6267 7.8281 15.6267 7.8121 15.5617 7.8281C15.4546 7.84655 15.3533 7.88969 15.2657 7.9541C15.2277 7.98743 15.2277 8.0201 15.2657 8.0521L15.6107 8.3321C15.9937 8.5771 16.2607 8.7361 16.4207 8.8071C16.6007 8.88844 16.7917 8.9341 16.9937 8.9441C17.0217 8.9441 17.0437 8.9381 17.0537 8.9111C17.0927 8.8451 17.1417 8.7851 17.1417 8.7031C17.1427 8.60732 17.124 8.51236 17.0867 8.4241V8.4081C17.0977 8.3911 17.1037 8.3911 17.1147 8.3971C17.1791 8.45318 17.2279 8.52479 17.2567 8.6051C17.2897 8.6811 17.3107 8.8561 17.2397 8.9111C17.1999 8.93812 17.1516 8.94984 17.1037 8.9441C17.0864 8.94277 17.0827 8.9501 17.0927 8.9661C17.1101 8.98743 17.1247 8.9981 17.1367 8.9981C17.2457 9.0091 17.3547 9.0311 17.4647 9.0531L17.9567 9.5291L18.4707 10.0651C18.4772 10.0738 18.4807 10.0843 18.4807 10.0951C18.4807 10.1059 18.4772 10.1164 18.4707 10.1251L18.3557 10.2611C18.3469 10.271 18.342 10.2838 18.342 10.2971C18.342 10.3104 18.3469 10.3232 18.3557 10.3331C18.6287 10.6331 18.8697 10.9731 19.0657 11.3331C19.0657 11.3711 19.0777 11.4041 19.0987 11.4431V11.4531L19.0957 11.4631L19.0887 11.4701H19.0607C19.0447 11.4701 19.0277 11.4641 19.0227 11.4421L18.9517 11.2461C18.9481 11.2344 18.9403 11.2244 18.9297 11.2181C18.9203 11.211 18.9086 11.2074 18.8967 11.2081C18.7894 11.2124 18.6823 11.1941 18.5824 11.1545C18.4825 11.1149 18.392 11.0548 18.3167 10.9781C18.125 10.7923 17.9265 10.6135 17.7217 10.4421C17.5939 10.3239 17.4374 10.2412 17.2677 10.2021C16.9937 10.0151 16.7757 9.8461 16.5897 9.7041C16.3938 9.54392 16.2093 9.37016 16.0377 9.1841C16.1467 9.0141 16.1137 8.7471 15.8737 8.7411C15.7477 8.6161 15.5507 8.5771 15.3807 8.5611C15.0147 8.3971 14.6157 8.3261 14.2057 8.2821C13.9477 8.25543 13.7034 8.2811 13.4727 8.3591C13.462 8.36243 13.4521 8.36798 13.4437 8.37538C13.4352 8.38279 13.4284 8.3919 13.4237 8.4021C13.4156 8.42101 13.4135 8.44196 13.4177 8.4621C13.4397 8.5501 13.4617 8.6371 13.4947 8.7251C13.5497 8.8731 13.3967 8.9491 13.2867 8.9981C12.7837 9.2011 12.2207 9.2501 11.6907 9.3261C11.2448 9.37717 10.8114 9.50684 10.4107 9.7091C9.93575 9.9391 9.44875 10.1901 8.93475 10.2831C8.74371 10.3175 8.54689 10.2989 8.36575 10.2291C8.29575 10.2011 8.24075 10.2181 8.19075 10.2831C8.18192 10.2947 8.17066 10.3043 8.15775 10.3111C8.13075 10.3271 8.11475 10.3211 8.11975 10.2891C8.24831 10.1261 8.40148 9.98402 8.57375 9.8681V9.8501C8.5739 9.84372 8.57253 9.8374 8.56975 9.83166C8.56697 9.82592 8.56285 9.82093 8.55775 9.8171C8.42017 9.73658 8.30978 9.61679 8.24075 9.4731C8.09275 9.1781 8.78675 8.7841 9.01075 8.6861H9.03275C9.03275 8.6861 9.04375 8.6861 9.04375 8.6961L9.05475 8.7181C9.01075 8.7731 9.00075 8.8281 9.03275 8.8721C9.03863 8.88203 9.04659 8.89056 9.05609 8.89712C9.06558 8.90368 9.07638 8.90811 9.08775 8.9101C9.30675 8.9431 9.52475 8.9101 9.73775 8.8931C9.86375 8.8831 9.98975 8.8611 10.1207 8.8391C10.5566 8.75175 10.9873 8.64024 11.4107 8.5051C11.5757 8.4511 11.6687 8.2591 11.5047 8.1221C11.4419 8.07288 11.3761 8.02746 11.3077 7.9861C11.2737 7.96543 11.2647 7.97443 11.2807 8.0131C11.3457 8.1881 11.2907 8.2921 11.1707 8.4131C11.1414 8.4435 11.106 8.46735 11.0667 8.4831C11.0301 8.4991 11.0231 8.4901 11.0457 8.4561C11.1547 8.2971 11.1927 8.1721 11.1707 8.0731C11.1597 8.02454 11.1355 7.97997 11.1007 7.94432C11.066 7.90867 11.022 7.88333 10.9737 7.8711C10.7382 7.79053 10.4861 7.77028 10.2407 7.8122C9.99525 7.85413 9.76423 7.95689 9.56875 8.1111C9.44976 8.17331 9.35118 8.26842 9.28475 8.3851C9.22765 8.41943 9.1791 8.46627 9.14275 8.5221L8.80275 8.5761C8.73775 8.5931 8.69375 8.5661 8.65575 8.5161C8.57875 8.4061 8.58475 8.3141 8.67775 8.2321C9.01761 7.9165 9.38136 7.62764 9.76575 7.3681C10.2577 7.0511 10.8257 6.8591 11.4227 6.7281C11.6297 6.6841 11.7617 6.5651 11.7287 6.3301Z" fill="#FFF5F6"/>
<path d="M16.0268 6.33611C16.0268 6.35811 16.0428 6.38011 16.0648 6.39611C16.0988 6.81611 16.2058 7.22611 16.3818 7.61011C16.3883 7.61441 16.3959 7.6167 16.4038 7.6167C16.4116 7.6167 16.4192 7.61441 16.4258 7.61011C16.4358 7.61011 16.4418 7.59911 16.4418 7.59411L16.5398 7.37411L16.5508 7.35811C16.5573 7.3538 16.5649 7.35151 16.5728 7.35151C16.5806 7.35151 16.5882 7.3538 16.5948 7.35811L16.6048 7.37511L16.6168 7.40811L16.6878 7.88311C16.6878 7.92211 16.7098 7.95411 16.7318 7.97611C16.7571 8.00262 16.7893 8.02165 16.8248 8.03111C17.0548 8.06411 17.2788 8.10711 17.5078 8.0251C17.5145 8.02345 17.5215 8.02416 17.5278 8.02711C17.5338 8.03044 17.5381 8.03544 17.5408 8.04211V8.0581L17.4148 8.48511C17.3974 8.54511 17.4158 8.56144 17.4698 8.53411L17.5518 8.46811C17.5599 8.461 17.5695 8.45586 17.5799 8.45309C17.5903 8.45031 17.6012 8.44998 17.6118 8.45211C17.6225 8.45411 17.6326 8.45859 17.6413 8.46518C17.6499 8.47178 17.657 8.48031 17.6618 8.49011L17.9458 9.13011C17.9668 9.18511 17.9998 9.18511 18.0388 9.14611C18.0802 9.09902 18.11 9.04284 18.1258 8.98211L18.3008 8.63211L18.4208 9.12511C18.3338 9.28911 18.2238 9.42511 18.1038 9.52411C18.0899 9.53616 18.0719 9.54229 18.0535 9.54117C18.0352 9.54005 18.018 9.53176 18.0058 9.51811C17.9844 9.49744 17.9678 9.50111 17.9558 9.52911L17.4638 9.05911C17.4858 9.02611 17.4638 8.98211 17.4208 8.92211C17.4099 8.9095 17.4023 8.89438 17.3988 8.87811C17.3814 8.77759 17.3501 8.67999 17.3058 8.58811L17.2898 8.57811C17.2678 8.57211 17.2568 8.5781 17.2568 8.6051C17.2259 8.52562 17.1769 8.45442 17.1138 8.39711C17.1044 8.39244 17.0974 8.39611 17.0928 8.40811V8.42511L17.0758 8.41911C17.0598 8.41911 17.0538 8.42511 17.0488 8.44111L17.0378 8.50111C17.0491 8.43577 17.0364 8.38111 16.9998 8.33711C16.9298 8.2645 16.8621 8.1898 16.7968 8.11311C16.7098 8.02415 16.6033 7.9567 16.4858 7.91611C16.3617 7.86935 16.2289 7.85057 16.0968 7.86111C16.0468 7.83983 15.993 7.82894 15.9388 7.82911L15.9938 7.81811C16.0638 7.81811 16.0691 7.79611 16.0098 7.75211C15.9342 7.69561 15.8645 7.63162 15.8018 7.56111C15.8238 7.56111 15.8348 7.56111 15.8398 7.55011C15.8431 7.54111 15.8451 7.53168 15.8458 7.52211V7.49511C15.7812 7.38877 15.756 7.2631 15.7748 7.14011C15.8298 6.81211 15.8728 6.60411 15.9168 6.52211L16.0268 6.33611ZM6.57776 6.60411C6.75776 6.88411 6.80876 7.19411 6.73076 7.53411C6.69038 7.71472 6.61383 7.88528 6.50572 8.03549C6.39762 8.18571 6.2602 8.31246 6.10176 8.40811C6.09688 8.41587 6.09481 8.42507 6.0959 8.43417C6.09699 8.44327 6.10118 8.45172 6.10776 8.45811C6.20576 8.56711 6.32676 8.70311 6.39776 8.84011C6.46776 8.98811 6.40776 9.13511 6.23376 9.14611C6.13376 9.15411 6.03342 9.16344 5.93276 9.17411C5.92112 9.18102 5.91244 9.19198 5.90838 9.2049C5.90432 9.21782 5.90516 9.23178 5.91076 9.24411C6.06976 9.60011 6.14076 10.0161 5.81276 10.2561C5.55576 10.4481 5.16676 10.3761 4.89976 10.2561C4.73451 10.1971 4.56112 10.1641 4.38576 10.1581C4.37833 10.1611 4.37158 10.1656 4.36592 10.1713C4.36025 10.1769 4.35577 10.1837 4.35276 10.1911C4.37876 10.3771 4.37509 10.5631 4.34176 10.7491C4.33076 10.7871 4.30376 10.7811 4.25376 10.7491L4.10676 10.0921C4.05769 9.87407 4.003 9.65733 3.94276 9.44211C3.85476 9.12511 3.77876 8.80211 3.70276 8.48511C3.67514 8.36654 3.6584 8.24571 3.65276 8.1241L4.07876 8.94411C4.15009 9.08611 4.25409 9.23944 4.39076 9.40411C4.50076 9.57811 4.65276 9.75411 4.85576 9.92811C4.91576 9.97811 4.94276 9.96111 4.92576 9.88511C4.88863 9.65001 4.87257 9.41206 4.87776 9.17411C4.8839 9.16567 4.89132 9.15825 4.89976 9.15211C4.90813 9.14789 4.91738 9.14569 4.92676 9.14569C4.93613 9.14569 4.94538 9.14789 4.95376 9.15211C5.10442 9.24011 5.25776 9.32377 5.41376 9.40311C5.41794 9.40522 5.42257 9.40631 5.42726 9.40631C5.43195 9.40631 5.43657 9.40522 5.44076 9.40311L5.45076 9.38711V9.37611C5.47938 9.16928 5.44119 8.95871 5.34176 8.7751C5.32744 8.75402 5.32172 8.72827 5.32576 8.70311L5.33076 8.69811C5.33513 8.69295 5.34112 8.68943 5.34776 8.68811H5.35776L5.82876 8.7961C5.83684 8.7984 5.84544 8.79809 5.85334 8.79522C5.86124 8.79234 5.86803 8.78706 5.87276 8.78011C5.87799 8.77302 5.8816 8.76486 5.88333 8.75622C5.88506 8.74758 5.88486 8.73866 5.88276 8.7301C5.78476 8.2931 5.85076 7.78011 5.96576 7.34211C5.98776 7.26011 6.01476 7.25511 6.04176 7.33711C6.09201 7.48229 6.17637 7.61329 6.28776 7.71911C6.29804 7.72918 6.31186 7.73483 6.32626 7.73483C6.34065 7.73483 6.35448 7.72918 6.36476 7.71911C6.40476 7.60911 6.44142 7.49811 6.47476 7.38611C6.53976 7.14011 6.55076 6.86111 6.57776 6.60411Z" fill="#826158"/>
<path d="M11.1708 8.0751C11.1593 8.10642 11.1559 8.14011 11.1608 8.1731V8.1841H11.1438C11.1371 8.1841 11.1334 8.17876 11.1328 8.1681C11.1328 8.1511 11.1328 8.1401 11.1158 8.1351C11.0948 8.1241 11.0838 8.1131 11.0948 8.0851C11.0948 8.0751 11.0948 8.0691 11.0838 8.0641C11.0776 8.06148 11.071 8.06014 11.0643 8.06014C11.0576 8.06014 11.0509 8.06148 11.0448 8.0641C11.0109 8.07496 10.9746 8.07496 10.9408 8.0641C10.9197 8.02637 10.89 7.99424 10.8539 7.9704C10.8179 7.94656 10.7767 7.93171 10.7338 7.9271L10.3938 7.8771C10.3184 7.8671 10.2568 7.89476 10.2088 7.9601C10.1979 7.97412 10.192 7.99136 10.192 8.0091C10.192 8.02684 10.1979 8.04407 10.2088 8.0581C10.2269 8.08361 10.2505 8.10475 10.2778 8.11998C10.3051 8.1352 10.3355 8.14413 10.3668 8.1461C10.5161 8.1741 10.6658 8.20143 10.8158 8.2281L10.8208 8.2381C10.823 8.24241 10.8242 8.24722 10.8242 8.2521C10.8242 8.25698 10.823 8.26178 10.8208 8.2661C10.6898 8.4461 10.4818 8.6261 10.2628 8.6761C10.0448 8.7201 9.55775 8.7141 9.55775 8.3541L9.56875 8.1131C9.76424 7.95889 9.99526 7.85612 10.2407 7.8142C10.4861 7.77227 10.7382 7.79252 10.9738 7.8731C11.0215 7.88631 11.0649 7.91198 11.0996 7.94747C11.1342 7.98296 11.1587 8.027 11.1708 8.0751ZM15.6268 8.3051L15.6108 8.3321L15.2658 8.0581C15.2278 8.0201 15.2278 7.9881 15.2658 7.9481C15.3554 7.88861 15.456 7.84779 15.5618 7.8281C15.6264 7.81743 15.6318 7.82843 15.5778 7.8611C15.4028 7.9711 15.4958 8.1951 15.6278 8.3041M16.0928 7.8661C16.2262 7.85103 16.3613 7.86818 16.4868 7.9161C16.6068 7.95876 16.7104 8.0241 16.7978 8.1121L16.7158 8.1341C16.695 8.13992 16.677 8.15302 16.665 8.17101C16.6531 8.189 16.648 8.21068 16.6508 8.2321C16.6508 8.24943 16.6561 8.2641 16.6668 8.2761C16.7438 8.3911 16.8468 8.4951 16.9668 8.5711C16.9085 8.6241 16.8386 8.6626 16.7626 8.68345C16.6867 8.7043 16.6069 8.70692 16.5298 8.6911C16.4226 8.66791 16.3168 8.63887 16.2128 8.6041C16.1431 8.56111 16.0789 8.50973 16.0218 8.4511C15.8028 8.2491 15.8028 7.9911 16.0928 7.8661Z" fill="#010101"/>
<path d="M10.9398 8.0591C10.9784 8.1411 10.9678 8.19577 10.9078 8.2231C10.7271 8.19949 10.5468 8.17382 10.3668 8.1461C10.3047 8.13801 10.248 8.10697 10.2078 8.0591C10.1966 8.04499 10.1906 8.02756 10.1906 8.0096C10.1906 7.99164 10.1966 7.97421 10.2078 7.9601C10.2564 7.89477 10.3184 7.86743 10.3938 7.8781L10.7338 7.9281C10.8218 7.93877 10.8908 7.9821 10.9408 8.0581M16.5628 8.0301L16.5728 8.0361C16.5759 8.03979 16.578 8.04417 16.5791 8.04887C16.5801 8.05357 16.58 8.05845 16.5788 8.0631V8.0801C16.5678 8.10862 16.5463 8.13187 16.5188 8.1451C16.5042 8.15189 16.4883 8.15541 16.4723 8.15541C16.4562 8.15541 16.4403 8.15189 16.4258 8.1451H16.4098C16.395 8.13918 16.3816 8.13038 16.3702 8.11923C16.3589 8.10807 16.3499 8.09477 16.3438 8.0801C16.3372 8.063 16.3344 8.04473 16.3354 8.02646C16.3365 8.00819 16.3414 7.99035 16.3498 7.9741L16.3598 7.9641C16.3641 7.96182 16.3689 7.96063 16.3738 7.96063C16.3786 7.96063 16.3834 7.96182 16.3878 7.9641L16.5628 8.0301ZM9.97876 7.9761C9.98779 7.97273 9.99773 7.97273 10.0068 7.9761C10.0168 7.9761 10.0288 7.9861 10.0338 7.9921L10.0448 8.0091C10.0654 8.04243 10.0728 8.07877 10.0668 8.1181C10.0654 8.13877 10.0581 8.1571 10.0448 8.1731C10.0358 8.189 10.0227 8.20214 10.0068 8.2111L9.99576 8.2161C9.98095 8.22689 9.96403 8.23443 9.94611 8.23822C9.92819 8.24201 9.90967 8.24197 9.89176 8.2381C9.85529 8.22828 9.82386 8.20507 9.80376 8.1731L9.79376 8.1561L9.78776 8.1401C9.786 8.13136 9.78721 8.12229 9.7912 8.11432C9.79518 8.10635 9.80171 8.09994 9.80976 8.0961L9.97376 7.9811L9.97876 7.9761ZM16.7978 8.1121C16.8578 8.1891 16.9288 8.2661 16.9998 8.3371C17.0328 8.3801 17.0498 8.4351 17.0378 8.5011C17.0224 8.5651 16.9991 8.58843 16.9678 8.5711C16.8508 8.49129 16.7489 8.39142 16.6668 8.2761C16.6584 8.26339 16.6531 8.24895 16.6512 8.23387C16.6493 8.2188 16.6509 8.20348 16.6558 8.1891L16.6768 8.1561C16.6879 8.14591 16.7013 8.13839 16.7158 8.1341L16.7978 8.1121Z" fill="#FFF5F6"/>
<path d="M15.3748 8.5621C15.1888 8.5951 15.0308 8.5621 14.8398 8.5511C14.5929 8.53421 14.3477 8.49743 14.1068 8.4411C13.9931 8.41734 13.875 8.42707 13.7668 8.4691C13.6748 8.5191 13.6368 8.5841 13.6638 8.6711C13.7188 8.8631 13.9038 8.8681 14.0518 8.9451C13.9949 8.98281 13.932 9.01055 13.8658 9.0271C13.7551 9.0531 13.6914 9.0711 13.6748 9.0811C13.1878 9.2561 12.7068 9.4421 12.2198 9.6011C11.6398 9.7921 11.0608 9.9671 10.5038 10.2241C9.85921 10.5025 9.30358 10.9527 8.8976 11.5255C8.49161 12.0983 8.2509 12.7717 8.20176 13.4721C8.10476 14.3101 8.23176 15.1591 8.56776 15.9321C8.86776 16.6001 9.31676 17.1891 9.87976 17.6551C10.3601 18.0624 10.9081 18.3826 11.4988 18.6011C12.5754 19.0118 13.6688 19.1211 14.7788 18.9291C15.5648 18.8068 16.3075 18.4891 16.9388 18.0051C17.7586 17.3668 18.3727 16.5016 18.7048 15.5171C18.963 14.7992 19.0746 14.0369 19.0328 13.2751C19.0013 12.6375 18.7909 12.0217 18.4258 11.4981C18.2216 11.1944 17.987 10.9123 17.7258 10.6561C17.4858 10.4254 17.3328 10.2741 17.2668 10.2021C17.4148 10.2351 17.5668 10.3121 17.7208 10.4421C17.9228 10.6074 18.1214 10.7864 18.3168 10.9791C18.4808 11.1431 18.6768 11.2141 18.8968 11.2091C18.9081 11.2091 18.9188 11.2124 18.9288 11.2191C18.9394 11.2258 18.9468 11.2351 18.9508 11.2471L19.0218 11.4441C19.0278 11.4651 19.0438 11.4711 19.0598 11.4711H19.0908L19.0988 11.4651V11.4441C19.0786 11.4108 19.0673 11.373 19.0658 11.3341L19.4658 12.1761C19.5191 12.3168 19.5534 12.4501 19.5688 12.5761C19.5908 12.7891 19.6068 13.0461 19.6128 13.3631C19.6178 13.4991 19.5908 13.6421 19.5858 13.7831C19.5638 13.8601 19.5308 13.9311 19.4978 14.0031C19.4616 14.0677 19.436 14.1375 19.4218 14.2101C19.3049 14.798 19.1021 15.3654 18.8198 15.8941C18.2913 16.8656 17.6038 17.7418 16.7858 18.4861C16.2947 18.9524 15.7119 19.3113 15.0746 19.5401C14.4372 19.7689 13.7593 19.8626 13.0838 19.8151C12.3751 19.8058 11.677 19.6413 11.0388 19.3331C10.6188 19.1311 10.2028 18.8851 9.73876 18.7871C9.41896 18.7208 9.0979 18.6608 8.77576 18.6071C8.50296 18.5615 8.23778 18.4784 7.98776 18.3601C7.47954 18.0908 7.07144 17.6652 6.82376 17.1461C6.62302 16.7549 6.45123 16.3494 6.30976 15.9331C6.27463 15.8314 6.22477 15.7353 6.16176 15.6481C6.27043 15.4141 6.37042 15.1774 6.46176 14.9381C6.50109 14.8381 6.55043 14.7468 6.60976 14.6641C6.66476 14.5881 6.64876 14.5761 6.57176 14.6201C6.52276 14.6421 6.47376 14.6591 6.42476 14.6311C6.04176 14.4401 6.28176 14.0081 6.44576 13.7511C6.71775 13.3156 7.09368 12.9544 7.53976 12.7001V12.6901C7.54476 12.6781 7.53976 12.6781 7.53476 12.6781C7.40276 12.7331 7.28276 12.7001 7.16776 12.5961C6.90576 12.3561 6.94876 12.0001 7.11376 11.7161C7.27776 11.4261 7.47976 11.1141 7.72576 10.7641C7.84719 10.5978 7.97877 10.4392 8.11976 10.2891C8.11843 10.3211 8.13109 10.3284 8.15776 10.3111C8.17012 10.306 8.18134 10.2986 8.19076 10.2891C8.23976 10.2181 8.29976 10.2011 8.36576 10.2291C8.55176 10.2941 8.73676 10.3221 8.93376 10.2831C9.44776 10.1901 9.93376 9.9391 10.4108 9.7091C10.8111 9.50695 11.2442 9.37729 11.6898 9.3261C12.2198 9.2501 12.7838 9.2011 13.2868 8.9981C13.3958 8.9491 13.5488 8.8731 13.4938 8.7251C13.4644 8.63864 13.4391 8.55088 13.4178 8.4621L13.4228 8.4021C13.4341 8.38253 13.4517 8.36737 13.4728 8.3591C13.7034 8.27577 13.9474 8.2501 14.2048 8.2821C14.6148 8.3261 15.0148 8.3921 15.3748 8.5611" fill="#E6D1CC"/>
<path d="M15.3758 8.5621C15.5508 8.5841 15.7478 8.6171 15.8738 8.7421V8.7861C15.8568 8.7641 15.8348 8.7531 15.8188 8.7591L15.8078 8.7681L15.8018 8.7811C15.7638 8.9781 15.5568 8.9611 15.4248 8.9011C15.2988 8.8461 15.0418 8.8351 15.0148 9.0321C14.9579 9.03257 14.9016 9.01955 14.8508 8.9941C14.8728 8.8521 14.5938 8.7541 14.4958 8.7541C14.3038 8.7541 14.1458 8.7421 14.0038 8.7151C13.8938 8.6931 13.8118 8.6111 13.7688 8.4691C13.8758 8.42473 13.9941 8.41528 14.1068 8.4421C14.3478 8.4911 14.5888 8.5401 14.8398 8.5511C15.0318 8.5621 15.1898 8.5951 15.3758 8.5621Z" fill="#C98C89"/>
<path d="M13.7677 8.46811C13.8124 8.61011 13.8924 8.69211 14.0077 8.71411C14.1457 8.74078 14.3081 8.75344 14.4947 8.75211C14.5937 8.75211 14.8717 8.85111 14.8497 8.99211C14.8067 8.98211 14.7797 9.00411 14.7577 9.05811C14.7511 8.98744 14.7364 8.94911 14.7137 8.94311C14.6367 8.91111 14.6097 8.93811 14.6427 9.02011C14.6742 9.09803 14.6856 9.18264 14.6757 9.26611L14.6697 9.28211L14.6537 9.29311C14.6487 9.29372 14.6435 9.29303 14.6388 9.29111C14.6341 9.28918 14.6299 9.28609 14.6267 9.28211C14.5364 9.16285 14.4124 9.07334 14.2707 9.02511L14.0517 8.94911C13.9047 8.86711 13.7237 8.86111 13.6697 8.67611C13.6364 8.58278 13.6691 8.51344 13.7677 8.46811Z" fill="#BC7573"/>
<path d="M9.26776 8.5611C9.28976 8.7251 9.37776 8.7471 9.48676 8.8071C9.50276 8.8131 9.50276 8.8291 9.49676 8.8461C9.49176 8.8621 9.47576 8.8681 9.45876 8.8681C9.30076 8.8401 9.21276 8.7581 9.18576 8.6051L9.20176 8.5341C9.20776 8.5231 9.22376 8.5181 9.23476 8.5181C9.24576 8.5181 9.25676 8.5281 9.25676 8.5391L9.26776 8.5611Z" fill="#FFF5F6"/>
<path d="M17.4698 9.06011C17.3623 9.03101 17.2526 9.01094 17.1418 9.00011C17.1251 9.00011 17.1084 8.98877 17.0918 8.96611C17.0824 8.95077 17.0864 8.94344 17.1038 8.94411C17.1515 8.95014 17.1997 8.93877 17.2398 8.91211C17.3168 8.85711 17.2898 8.68211 17.2558 8.60511C17.2558 8.57811 17.2678 8.57311 17.2898 8.57811C17.3011 8.57944 17.3101 8.58844 17.3168 8.60511C17.3548 8.69311 17.3818 8.78011 17.3988 8.87911C17.3988 8.89511 17.4088 8.90611 17.4208 8.92311C17.4698 8.97711 17.4858 9.03211 17.4698 9.05911" fill="#250E08"/>
<path d="M15.4298 8.68211L14.9158 8.62711C14.9013 8.62737 14.8876 8.63328 14.8775 8.64356C14.8674 8.65385 14.8618 8.66769 14.8618 8.68211C14.8558 8.71411 14.8778 8.73611 14.9048 8.74211L15.4248 8.79611C15.4319 8.79624 15.4391 8.79494 15.4457 8.79229C15.4524 8.78963 15.4585 8.78567 15.4636 8.78065C15.4687 8.77562 15.4728 8.76962 15.4756 8.763C15.4783 8.75639 15.4798 8.74928 15.4798 8.74211C15.4801 8.73123 15.4775 8.72046 15.4722 8.71095C15.467 8.70144 15.4592 8.69354 15.4498 8.68811L15.4298 8.68211ZM15.8728 8.74211C16.1128 8.74211 16.1468 9.01511 16.0368 9.17911C15.9556 9.14705 15.8842 9.0943 15.8298 9.02611C15.8563 8.9928 15.8745 8.95369 15.883 8.91198C15.8916 8.87027 15.8901 8.82714 15.8788 8.78611V8.74211H15.8728Z" fill="#E6D1CC"/>
<path d="M15.8787 8.78511C15.8893 8.82661 15.8898 8.87001 15.8802 8.91174C15.8706 8.95347 15.8513 8.99233 15.8237 9.02511C15.7734 9.0873 15.7043 9.13151 15.6267 9.15111C15.4467 9.18844 15.2881 9.26711 15.1507 9.38711C15.0967 9.43011 15.0857 9.41911 15.0967 9.35411C15.126 9.23408 15.1843 9.12313 15.2667 9.03111L15.2677 9.02111C15.2677 9.01644 15.2671 9.01244 15.2657 9.00911L15.2557 8.99911C15.2377 8.98933 15.2172 8.9848 15.1967 8.98604C15.1762 8.98728 15.1565 8.99423 15.1397 9.00611C15.1263 9.01532 15.1153 9.02768 15.1077 9.04211C15.0965 9.0629 15.0816 9.08152 15.0637 9.09711C15.0527 9.05911 15.0417 9.04211 15.0137 9.03111C15.0357 8.83411 15.2987 8.84011 15.4237 8.90011C15.5557 8.96011 15.7637 8.97611 15.8017 8.78011C15.8017 8.76911 15.8117 8.76311 15.8237 8.75811C15.8337 8.75211 15.8577 8.75811 15.8787 8.78511Z" fill="#BC7573"/>
<path d="M14.7578 9.05911L14.7198 9.54511C14.7198 9.60511 14.6818 9.63311 14.6268 9.62711C13.4128 9.51711 12.1988 9.72011 11.1108 10.2891C10.4022 10.6564 9.80412 11.2055 9.37776 11.8801C8.85703 12.6566 8.60357 13.5816 8.65576 14.5151C8.69576 15.2131 8.93076 15.8851 9.33376 16.4571C9.48676 16.6971 9.66176 16.9161 9.85876 17.1241L10.2468 17.4741C11.1766 18.2883 12.3535 18.7656 13.5878 18.8291C14.6937 18.8641 15.7795 18.5275 16.6718 17.8731L17.1318 17.4951C17.2408 17.4081 17.3498 17.2931 17.4588 17.1671C17.7221 16.8558 17.9411 16.5331 18.1158 16.1991C18.5161 15.4823 18.7045 14.6664 18.6588 13.8467C18.6131 13.0269 18.3353 12.237 17.8578 11.5691C17.5376 11.0713 17.1195 10.644 16.6288 10.313C16.1381 9.98206 15.5852 9.75447 15.0038 9.64411C14.9919 9.63803 14.9824 9.62818 14.9768 9.61611V9.59411L15.0638 9.08611C15.0816 9.07052 15.0965 9.0519 15.1078 9.03111C15.126 9.00527 15.1536 8.98766 15.1848 8.98211C15.2087 8.97711 15.2335 8.98102 15.2548 8.99311L15.2608 9.00311L15.2658 9.01411V9.02611L15.2608 9.03611C15.1849 9.12751 15.129 9.23379 15.0968 9.34811C15.0868 9.41411 15.0968 9.42511 15.1518 9.38111C15.2884 9.26177 15.4471 9.18344 15.6278 9.14611C15.7077 9.129 15.7792 9.08442 15.8298 9.02011C15.8691 9.07611 15.9384 9.12911 16.0378 9.17911C16.2238 9.38111 16.4098 9.55111 16.5898 9.69911C16.7698 9.84111 16.9998 10.0101 17.2678 10.1961C17.3328 10.2731 17.4858 10.4201 17.7278 10.6501C17.9458 10.8571 18.1808 11.1421 18.4278 11.4921C18.7898 12.0141 18.9978 12.6281 19.0278 13.2631C19.0809 14.0272 18.9694 14.7938 18.7008 15.5111C18.3699 16.4946 17.7576 17.3594 16.9398 17.9981C16.3108 18.4833 15.5702 18.8031 14.7858 18.9281C13.6825 19.1154 12.5491 19.0021 11.5048 18.6001C10.9119 18.3803 10.3622 18.0581 9.88076 17.6481C9.318 17.1815 8.86925 16.5925 8.56876 15.9261C8.23241 15.1526 8.10582 14.3041 8.20176 13.4661C8.25045 12.7663 8.49042 12.0933 8.89548 11.5205C9.30054 10.9477 9.85514 10.4972 10.4988 10.2181C11.0618 9.96111 11.6418 9.78011 12.2208 9.59411C12.7128 9.43611 13.1888 9.25011 13.6758 9.07011L13.8658 9.02011C13.9314 9.00394 13.9944 8.97834 14.0528 8.94411L14.2708 9.02011C14.4111 9.0709 14.5344 9.15992 14.6268 9.27711L14.6378 9.28811H14.6538L14.6708 9.27811L14.6758 9.26111C14.6859 9.17772 14.6749 9.09312 14.6438 9.01511C14.6108 8.93311 14.6378 8.90511 14.7138 8.93811C14.7371 8.94411 14.7518 8.98244 14.7578 9.05311V9.05911Z" fill="#AE918B"/>
<path d="M14.8498 8.99311C14.9009 9.01871 14.9575 9.03174 15.0148 9.03111C15.0418 9.04211 15.0528 9.05911 15.0638 9.09111L14.9758 9.60011C14.9749 9.60686 14.9754 9.61371 14.9773 9.62024C14.9792 9.62677 14.9824 9.63285 14.9868 9.63811C14.9954 9.65011 15.0064 9.65744 15.0198 9.66011C15.5985 9.77042 16.1489 9.9969 16.6378 10.3259C17.1266 10.6548 17.5436 11.0795 17.8638 11.5741C17.8534 11.5876 17.8401 11.5985 17.8248 11.6059C17.8095 11.6134 17.7927 11.6172 17.7758 11.6171C17.7701 11.6176 17.7647 11.62 17.7607 11.6241C17.7567 11.6281 17.7542 11.6334 17.7538 11.6391C17.7387 11.6891 17.737 11.7422 17.7488 11.7931C17.8418 12.0931 17.6778 12.3931 17.4368 12.5581C17.2943 12.6545 17.1313 12.7161 16.9608 12.7381C16.5977 12.7902 16.2276 12.7584 15.8788 12.6451L15.5988 12.5531C15.3429 12.4813 15.084 12.421 14.8228 12.3721C14.756 12.3607 14.688 12.359 14.6208 12.3671C14.0853 12.4351 13.5697 12.6135 13.1068 12.8911C12.6421 13.1611 12.1681 13.4128 11.6848 13.6461C11.4658 13.7441 11.2478 13.7831 11.0228 13.8541C11.0091 13.8582 10.9947 13.8594 10.9806 13.8575C10.9664 13.8556 10.9528 13.8507 10.9408 13.8431C10.5717 13.6317 10.1714 13.4804 9.75475 13.3951C9.73914 13.393 9.72436 13.3867 9.7119 13.3771C9.69944 13.3674 9.68974 13.3547 9.68375 13.3401C9.57857 13.1346 9.50122 12.916 9.45375 12.6901C9.42054 12.4854 9.41516 12.2772 9.43775 12.0711C9.43775 12.0281 9.42075 11.9891 9.38275 11.9671C9.37791 11.9635 9.37427 11.9585 9.37231 11.9528C9.37035 11.9471 9.37015 11.9409 9.37175 11.9351V11.8801C9.80045 11.2065 10.4006 10.6591 11.1108 10.2941C12.1936 9.73657 13.4149 9.50489 14.6268 9.62711C14.6814 9.63244 14.7124 9.60511 14.7198 9.54511L14.7578 9.05911C14.7804 9.00444 14.8114 8.98244 14.8508 8.99311" fill="#250E08"/>
<path d="M18.4208 9.1241L18.5688 9.5451C18.6068 9.6551 18.6678 9.7851 18.7548 9.9451C19.0058 10.4201 19.2148 10.9551 19.3728 11.5411C19.4374 11.7771 19.4664 11.9884 19.4598 12.1751L19.0668 11.3331C18.8692 10.9573 18.6246 10.6081 18.3388 10.2941L18.3558 10.2611L18.4708 10.1251C18.4772 10.1164 18.4808 10.1059 18.4808 10.0951C18.4808 10.0843 18.4772 10.0738 18.4708 10.0651L17.9568 9.5291C17.9674 9.50043 17.9838 9.49677 18.0058 9.5181C18.0182 9.53161 18.0354 9.53971 18.0537 9.54065C18.0721 9.54158 18.09 9.53528 18.1038 9.5231C18.2238 9.4251 18.3338 9.2881 18.4208 9.1241Z" fill="#774C46"/>
<path d="M5.41776 15.5001C5.12451 14.7621 4.8924 14.0012 4.72376 13.2251C4.67376 13.0078 4.57542 12.4758 4.42876 11.6291C4.55376 11.6831 4.66876 11.6831 4.77876 11.6451C5.05176 11.5351 5.11776 11.2461 4.95376 11.0001C4.95151 10.9965 4.95078 10.9922 4.95172 10.9881C4.95266 10.984 4.95519 10.9804 4.95876 10.9781L4.96976 10.9731C4.98319 10.9721 4.99657 10.9756 5.00776 10.9831C5.21076 11.1481 5.44576 11.2791 5.69776 11.2791C5.99776 11.2791 6.18876 11.0761 6.33676 10.8031C6.49676 10.5251 6.66276 10.2501 6.83476 9.9781H6.83976C6.85109 9.9841 6.85476 9.9931 6.85076 10.0051C6.76999 10.8341 6.546 11.6427 6.18876 12.3951C6.18045 12.4118 6.17699 12.4305 6.17876 12.4491C6.18467 12.5004 6.18059 12.5524 6.16676 12.6021L5.98676 12.9191C5.70383 13.4055 5.54419 13.9538 5.52176 14.5161C5.51676 14.6421 5.60376 14.6801 5.70176 14.7021C5.72976 14.7021 5.74076 14.7241 5.73576 14.7561C5.68076 15.0301 5.57676 15.2211 5.41776 15.5001Z" fill="#683B36"/>
<path d="M17.8628 11.5741C18.3386 12.2433 18.6144 13.0339 18.658 13.8539C18.7016 14.6738 18.5111 15.4893 18.1088 16.2051C18.0538 16.1841 18.0488 16.1181 18.0758 16.0031C18.1748 15.6201 18.0978 15.3311 17.9718 14.9811C17.9278 14.8544 17.8404 14.8178 17.7098 14.8711C17.6463 14.8994 17.586 14.9343 17.5298 14.9751C16.9388 15.4131 16.3648 15.8551 15.7298 16.2441C15.2658 16.5231 14.6908 16.7581 14.1558 16.8011C13.6824 16.8358 13.2067 16.7861 12.7508 16.6541C11.993 16.4009 11.2924 16.0013 10.6888 15.4781L9.83575 14.7681C9.75351 14.6967 9.65897 14.6408 9.55675 14.6031C9.51375 14.5931 9.48675 14.6031 9.46375 14.6421C9.41709 14.7488 9.38442 14.8598 9.36575 14.9751C9.30211 15.2883 9.28726 15.6094 9.32175 15.9271C9.33909 16.0591 9.35375 16.1921 9.36575 16.3261C9.38575 16.3574 9.39475 16.3921 9.39275 16.4301C9.39275 16.4511 9.37075 16.4621 9.33875 16.4571C8.93373 15.8868 8.69675 15.2143 8.65475 14.5161C8.60234 13.5823 8.85582 12.6569 9.37675 11.8801L9.37075 11.9351C9.37075 11.9461 9.37075 11.9621 9.38775 11.9681C9.42075 11.9901 9.44275 12.0231 9.43775 12.0781C9.41477 12.2798 9.41981 12.4838 9.45275 12.6841C9.50075 12.9134 9.57742 13.1321 9.68275 13.3401C9.69975 13.3681 9.72075 13.3901 9.75375 13.3951C10.1848 13.4821 10.5988 13.6391 10.9788 13.8601L11.0228 13.8541C11.2418 13.7841 11.4658 13.7451 11.6838 13.6471C12.0438 13.4951 12.3904 13.3164 12.7238 13.1111L13.1058 12.8911C13.5699 12.6161 14.0849 12.4379 14.6198 12.3671C14.6872 12.3572 14.7559 12.3589 14.8228 12.3721C15.1808 12.4388 15.5324 12.5301 15.8778 12.6461C16.2276 12.7562 16.5973 12.7879 16.9608 12.7391C17.1308 12.7171 17.2891 12.6571 17.4358 12.5591C17.6758 12.3941 17.8408 12.0941 17.7478 11.7931C17.7345 11.743 17.7345 11.6902 17.7478 11.6401C17.7528 11.6291 17.7648 11.6181 17.7748 11.6181C17.7918 11.6181 17.8087 11.6141 17.8239 11.6065C17.8392 11.5988 17.8525 11.5878 17.8628 11.5741Z" fill="#3C1A18"/>
<path d="M19.9468 13.5261L19.9188 14.1391C19.9188 14.1551 19.9188 14.1661 19.9028 14.1721L19.8808 14.1821C19.8708 14.1821 19.8708 14.1721 19.8708 14.1611C19.8708 13.9411 19.9028 13.7341 19.9468 13.5261Z" fill="#826158"/>
<path d="M19.5858 13.7831C19.5858 14.1231 19.5198 14.4501 19.4758 14.7731C19.3262 16.0575 18.797 17.2681 17.9558 18.2501C17.2645 19.0525 16.4111 19.6993 15.4518 20.1481C14.4458 20.6231 13.3848 20.6941 12.2918 20.6681C11.6008 20.6501 10.9144 20.5507 10.2468 20.3721C10.0233 20.3143 9.8041 20.2411 9.59075 20.1531C8.6565 19.7671 7.81693 19.1834 7.12975 18.4421C6.51779 17.7651 6.02938 16.9859 5.68675 16.1401C5.80634 16.0779 5.91213 15.9922 5.99775 15.8881C6.05775 15.8121 6.11275 15.7351 6.16175 15.6481C6.22775 15.7351 6.27175 15.8341 6.30975 15.9321C6.45642 16.3588 6.62775 16.7634 6.82375 17.1461C7.07175 17.6651 7.47975 18.0911 7.98775 18.3601C8.22909 18.4748 8.49175 18.5568 8.77575 18.6061C9.10375 18.6601 9.42075 18.7161 9.73775 18.7861C10.2028 18.8851 10.6128 19.1311 11.0398 19.3331C11.6798 19.6391 12.3628 19.8031 13.0838 19.8141C13.7593 19.8615 14.4372 19.7679 15.0746 19.5391C15.7119 19.3103 16.2947 18.9513 16.7858 18.4851C17.6005 17.7394 18.2861 16.8639 18.8148 15.8941C19.0934 15.3734 19.2938 14.8121 19.4158 14.2101C19.4324 14.1441 19.4598 14.0728 19.4978 13.9961C19.5352 13.9287 19.5647 13.8573 19.5858 13.7831Z" fill="#CBB2AD"/>
<path d="M19.8698 14.3181L19.7937 14.9421C19.7931 14.9907 19.7836 15.0389 19.7657 15.0841C19.5731 16.3623 19.0171 17.5581 18.1638 18.5291C17.4211 19.3847 16.4989 20.0659 15.4628 20.5241C14.9431 20.7659 14.3835 20.9106 13.8118 20.9511C13.8118 20.9401 13.7948 20.9401 13.7728 20.9401L14.4298 20.8301C14.6048 20.8031 14.8228 20.7431 15.0968 20.6391C15.9699 20.3027 16.7754 19.8118 17.4748 19.1901C17.6498 19.0371 17.8087 18.8621 17.9777 18.6981L18.1578 18.5011C19.084 17.4242 19.6553 16.0877 19.7937 14.6741C19.7944 14.5534 19.8198 14.4348 19.8698 14.3181Z" fill="#826158"/>
<path d="M18.1097 16.2061C17.8528 16.6877 17.5203 17.1249 17.1248 17.5011C17.0981 17.5078 17.0854 17.4914 17.0868 17.4521L17.1027 17.3971C17.2137 17.2341 17.2777 17.0431 17.2887 16.8451C17.3057 16.6871 17.2127 16.5671 17.0977 16.4741C17.0501 16.4352 16.9911 16.413 16.9296 16.4111C16.8682 16.4091 16.8078 16.4274 16.7577 16.4631C16.047 16.9381 15.2443 17.2583 14.4017 17.4031C14.2047 17.4411 14.0017 17.4531 13.8007 17.4631C12.9884 17.4967 12.1805 17.3276 11.4497 16.9711C11.0167 16.7691 10.5637 16.5111 10.0717 16.1891C9.87975 16.0631 9.60675 16.0791 9.63375 16.3921C9.64508 16.5348 9.67808 16.6531 9.73275 16.7471L9.93975 17.1021C9.95075 17.1191 9.94575 17.1241 9.92975 17.1301L9.85775 17.1241C9.66166 16.9192 9.48584 16.6958 9.33275 16.4571C9.37175 16.4631 9.38775 16.4571 9.39275 16.4301C9.39746 16.3914 9.38786 16.3523 9.36575 16.3201C9.27196 15.8767 9.27196 15.4185 9.36575 14.9751C9.38275 14.8551 9.42075 14.7451 9.46475 14.6471C9.48675 14.6041 9.51875 14.5931 9.55175 14.6041C9.65601 14.6408 9.75263 14.6964 9.83675 14.7681L10.6897 15.4781C11.2929 16.0011 11.9927 16.4007 12.7497 16.6541C13.1937 16.7911 13.6637 16.8341 14.1557 16.8021C14.6917 16.7581 15.2657 16.5281 15.7307 16.2441C16.3647 15.8611 16.9337 15.4181 17.5347 14.9751C17.5894 14.9346 17.648 14.8997 17.7097 14.8711C17.8411 14.8178 17.9287 14.8544 17.9727 14.9811C18.0977 15.3311 18.1747 15.6151 18.0817 16.0031C18.0497 16.1144 18.0597 16.1821 18.1097 16.2061Z" fill="#4E1E1E"/>
<path d="M17.1308 17.5021L16.6708 17.8791C16.6256 17.8294 16.5699 17.7905 16.5078 17.7651C16.3809 17.7367 16.2488 17.7422 16.1248 17.7811C15.8408 17.8511 15.5448 17.9071 15.2498 17.9451C14.7731 18.0104 14.2958 18.0688 13.8178 18.1201C13.4078 18.1588 12.9374 18.1621 12.4068 18.1301C11.7397 18.0803 11.0909 17.8887 10.5038 17.5681L10.3398 17.5131C10.3268 17.5063 10.3156 17.4967 10.3068 17.4851C10.2968 17.4641 10.2738 17.4641 10.2518 17.4751L9.85875 17.1251C9.88575 17.1301 9.91375 17.1351 9.92975 17.1301C9.94709 17.1301 9.95075 17.1211 9.94075 17.1031L9.73275 16.7471C9.67597 16.6368 9.6426 16.5159 9.63475 16.3921C9.60675 16.0801 9.88575 16.0641 10.0718 16.1901C10.5638 16.5121 11.0228 16.7701 11.4498 16.9771C12.1809 17.3319 12.9888 17.4992 13.8008 17.4641C14.0028 17.4471 14.2058 17.4421 14.4018 17.4091C15.2447 17.2612 16.0475 16.939 16.7588 16.4631C16.8087 16.4272 16.869 16.4087 16.9304 16.4106C16.9919 16.4124 17.051 16.4343 17.0988 16.4731C17.2078 16.5671 17.3058 16.6931 17.2888 16.8461C17.2788 17.0454 17.2149 17.2383 17.1038 17.4041C17.093 17.4201 17.0871 17.4388 17.0868 17.4581C17.0868 17.4911 17.0978 17.5081 17.1308 17.5021Z" fill="#683B36"/>
<path d="M10.2467 17.4741C10.2737 17.4641 10.2967 17.4641 10.3067 17.4841L10.3457 17.5121L10.5097 17.5671C11.0938 17.8902 11.7411 18.0823 12.4067 18.1301C12.8763 18.1636 13.3477 18.1603 13.8167 18.1201C14.2961 18.0681 14.7738 18.0094 15.2498 17.9441C15.5448 17.9061 15.8398 17.8511 16.1248 17.7801C16.2558 17.7471 16.3977 17.7251 16.5077 17.7641C16.5567 17.7741 16.6117 17.8181 16.6717 17.8791C16.0106 18.3724 15.2324 18.685 14.4137 18.7861C14.1417 18.8195 13.8678 18.8342 13.5938 18.8301C12.3601 18.768 11.1832 18.2925 10.2527 17.4801L10.2467 17.4741Z" fill="#7E4140"/>
<path d="M11.7557 20.9841C11.375 20.9565 10.9967 20.9017 10.6237 20.8201C10.6896 20.8156 10.7558 20.8193 10.8207 20.8311L11.0067 20.8641C11.0507 20.8641 11.0887 20.8751 11.1327 20.8861L11.2577 20.9081C11.4204 20.9088 11.5864 20.9341 11.7557 20.9841Z" fill="#826158"/>
<path d="M13.7738 20.9401C13.7958 20.9401 13.8118 20.9401 13.8178 20.9511C13.7413 20.9799 13.6588 20.9895 13.5778 20.9791C13.6392 20.9512 13.7063 20.9379 13.7738 20.9401Z" fill="#AE918B"/>
</svg>
